<?xml version="1.0" encoding="UTF-8"?>
<svg width="32px" height="20px" viewBox="0 0 32 20" version="1.1" xmlns="http://www.w3.org/2000/svg" xmlns:xlink="http://www.w3.org/1999/xlink">
    <!-- Generator: Sketch 52.3 (67297) - http://www.bohemiancoding.com/sketch -->
    <title>分组 12</title>
    <desc>Created with Sketch.</desc>
    <g id="页面-1" stroke="none" stroke-width="1" fill="none" fill-rule="evenodd">
        <g id="ad67-coupon-mob" transform="translate(-49.000000, -511.000000)" fill="#20AFA4" fill-rule="nonzero">
            <g id="分组-29-copy-2" transform="translate(10.000000, 478.000000)">
                <g id="分组-13" transform="translate(15.000000, 15.000000)">
                    <g id="分组-12" transform="translate(24.000000, 18.000000)">
                        <g id="卡车">
                            <path d="M17.4376266,10.9964734 L0,10.9964734 L0,0.712571353 C0,0.318167417 0.325483336,0 0.727291623,0 L16.7104425,0 C17.1122508,0 17.4376266,0.318919086 17.4376266,0.712627557 L17.4376266,10.9964734 Z M18.2787345,11.9048082 L18.8908117,11.9048082 L18.8908117,2.13715209 C18.8908117,1.73629909 19.2148969,1.42375178 19.6138014,1.423822 L25.4335542,1.423822 C25.8259698,1.423822 26.3788505,1.65161132 26.6520214,1.93279149 L31.830989,8.75977617 C31.9349185,9.13273947 31.9690478,9.77058467 31.9690478,10.1650378 L31.9690478,16.36978 C31.9690478,16.7641699 31.6457155,17.0852176 31.2474994,17.0852176 L29.0627994,17.0852176 C29.0627994,14.7258753 27.1112257,12.8138922 24.7033229,12.8138922 C22.2955992,12.8138922 20.3440255,14.7260158 20.3440255,17.0852176 L11.6251298,17.0852176 C11.6251298,14.7258753 9.67356326,12.8138922 7.26569625,12.8138922 C4.85793679,12.8138922 2.90637026,14.7260158 2.90637026,17.0852176 L0.733099372,17.0852176 C0.326343749,17.0852176 0,16.7691226 0,16.3796854 L0,11.9055643 L18.2787345,11.9055643 Z M10.1720522,17.0852247 C10.1720522,18.6579018 8.87090748,19.9327422 7.26579663,19.9327422 C5.66072165,19.9327422 4.35954106,18.6579018 4.35954106,17.0852247 C4.35954106,15.5125897 5.66071448,14.2377071 7.26579663,14.2376018 C8.87091465,14.2376018 10.1720522,15.5125897 10.1720522,17.0852247 Z M27.6095713,17.0852247 C27.6095713,18.6579018 26.3084337,19.9327422 24.7033157,19.9327422 C23.0982407,19.9327422 21.7970601,18.6579018 21.7970601,17.0852247 C21.7970601,15.5125897 23.0982407,14.2377071 24.7033157,14.2377071 C26.3084265,14.2377071 27.6097147,15.5125897 27.6095713,17.0852247 Z M20.9862018,7.82927174 C20.9862018,8.22295912 21.313155,8.54260183 21.7120953,8.54267206 L28.6028709,8.54267206 C29.0039622,8.54267206 29.1441721,8.27926541 28.9218654,7.96106288 L26.3068563,4.22007729 C26.0816458,3.89831304 25.5773778,3.63775156 25.1749601,3.63775156 L21.7113783,3.63775156 C21.3110041,3.63775156 20.9863453,3.95950179 20.9863453,4.35108165 L20.9863453,7.82934903 L20.9862018,7.82927174 Z" id="合并形状"></path>
                        </g>
                    </g>
                </g>
            </g>
        </g>
    </g>
</svg>