<?xml version="1.0" encoding="UTF-8"?>
<svg width="30px" height="30px" viewBox="0 0 30 30" version="1.1" xmlns="http://www.w3.org/2000/svg" xmlns:xlink="http://www.w3.org/1999/xlink">
    <!-- Generator: Sketch 52.3 (67297) - http://www.bohemiancoding.com/sketch -->
    <title>Contact Add</title>
    <desc>Created with Sketch.</desc>
    <g id="组件" stroke="none" stroke-width="1" fill="none" fill-rule="evenodd">
        <g id="stop" fill="#999999">
            <path d="M15,30 C6.71572875,30 0,23.2842712 0,15 C0,6.71572875 6.71572875,0 15,0 C23.2842712,0 30,6.71572875 30,15 C30,23.2842712 23.2842712,30 15,30 Z M15,28.6363636 C22.5311557,28.6363636 28.6363636,22.5311557 28.6363636,15 C28.6363636,7.46884432 22.5311557,1.36363636 15,1.36363636 C7.46884432,1.36363636 1.36363636,7.46884432 1.36363636,15 C1.36363636,22.5311557 7.46884432,28.6363636 15,28.6363636 Z M14.3181818,14.3181818 L14.3181818,7.5 L15.6818182,7.5 L15.6818182,14.3181818 L22.5,14.3181818 L22.5,15.6818182 L15.6818182,15.6818182 L15.6818182,22.5 L14.3181818,22.5 L14.3181818,15.6818182 L7.5,15.6818182 L7.5,14.3181818 L14.3181818,14.3181818 Z" id="Contact-Add" transform="translate(15.000000, 15.000000) rotate(-315.000000) translate(-15.000000, -15.000000) "></path>
        </g>
    </g>
</svg>