<?xml version="1.0" encoding="UTF-8"?>
<svg width="22px" height="21px" viewBox="0 0 22 21" version="1.1" xmlns="http://www.w3.org/2000/svg" xmlns:xlink="http://www.w3.org/1999/xlink">
    <!-- Generator: Sketch 52.3 (67297) - http://www.bohemiancoding.com/sketch -->
    <title>home</title>
    <desc>Created with Sketch.</desc>
    <g id="页面-1" stroke="none" stroke-width="1" fill="none" fill-rule="evenodd">
        <g id="ad67-homepage-mob" transform="translate(-15.000000, -35.000000)" fill="#FFFFFF" fill-rule="nonzero">
            <g id="分组-2" transform="translate(0.000000, 20.000000)">
                <g id="home" transform="translate(15.000000, 15.000000)">
                    <path d="M20.7264132,11.0460228 C20.9161422,11.2406296 21.1946681,11.3134646 21.4523578,11.2358587 C21.7100476,11.1582527 21.9056361,10.9426331 21.962136,10.6738718 C22.0186359,10.4051105 21.9269996,10.1262457 21.7232969,9.9470437 L11.4671698,0.200834482 C11.1857755,-0.0669448274 10.7501105,-0.0669448274 10.4687162,0.200834482 L0.214159027,9.945437 C-0.0641303867,10.2308811 -0.0722186156,10.6903917 0.195844817,10.9859087 C0.46390825,11.2814258 0.91225695,11.3072648 1.21104264,11.0444161 L10.967943,1.77378845 L20.7264132,11.0460228 Z M12.4326555,14.995278 L12.4326555,20.2443491 C12.4326555,20.6588763 12.7623335,20.9946755 13.1657966,20.9946755 L18.2946451,20.9946755 C18.6989346,20.9937895 19.0262174,20.6581163 19.0262164,20.2443491 L19.0262164,11.2468596 C19.008095,10.8463914 18.6855756,10.5312447 18.2938602,10.5312447 C17.9021448,10.5312447 17.5796254,10.8463914 17.561504,11.2468596 L17.561504,19.4940228 L13.8989378,19.4940228 L13.8989378,14.2465583 C13.8989378,13.8321645 13.5706993,13.496232 13.1657966,13.496232 L8.70886342,13.496232 C8.30457394,13.497118 7.97729119,13.8327912 7.97729212,14.2465583 L7.97729212,19.4940228 L4.37438201,19.4940228 L4.37438201,11.2468596 C4.35626055,10.8463914 4.03374115,10.5312447 3.64202577,10.5312447 C3.2503104,10.5312447 2.927791,10.8463914 2.90966953,11.2468596 L2.90966953,20.2443491 C2.90966953,20.6588763 3.23777768,20.9946755 3.64124084,20.9946755 L8.70886342,20.9946755 C9.11376611,20.9946755 9.4420046,20.6587429 9.4420046,20.2443491 L9.4420046,14.995278 L12.4326555,14.995278 Z M19.0270014,6.00706295 C19.4187168,6.00706295 19.7412362,5.69191621 19.7593576,5.29144806 L19.7593576,2.24937005 C19.7593576,1.83497625 19.4311191,1.4990437 19.0262164,1.4990437 L15.7888116,1.4990437 C15.3839089,1.49904371 15.0556704,1.83497626 15.0556704,2.24937005 C15.3839089,2.5984626 18.6985538,5.69191621 19.0270014,6.00706295 Z" id="形状"></path>
                </g>
            </g>
        </g>
    </g>
</svg>