<?xml version="1.0" encoding="UTF-8"?>
<svg width="129px" height="26px" viewBox="0 0 129 26" version="1.1" xmlns="http://www.w3.org/2000/svg" xmlns:xlink="http://www.w3.org/1999/xlink">
    <!-- Generator: Sketch 52.3 (67297) - http://www.bohemiancoding.com/sketch -->
    <title>分组 2</title>
    <desc>Created with Sketch.</desc>
    <g id="页面-1" stroke="none" stroke-width="1" fill="none" fill-rule="evenodd">
        <g id="ad67-search-mob" transform="translate(-123.000000, -32.000000)" fill="#FFFFFF">
            <g id="分组-2" transform="translate(0.000000, 20.000000)">
                <g transform="translate(123.000000, 12.000000)">
                    <g id="分组">
                        <path d="M1.4956092,9.17180952 C1.22146223,9.4253727 0.978951246,9.52573995 0.768068966,9.47291429 C0.557186685,9.42008862 0.399027347,9.27746148 0.293586207,9.04502857 C0.230321523,8.93937725 0.188145699,8.82316254 0.167057471,8.69638095 C0.145969243,8.56959937 0.124881331,8.45338466 0.103793103,8.34773333 C0.0827048754,8.24208201 0.0827048754,8.1258673 0.103793103,7.99908571 C0.14596956,7.1750054 0.351576699,6.46186968 0.72062069,5.85965714 C1.08966468,5.25744461 1.55887072,4.7397609 2.12825287,4.30659048 C2.69763503,3.87342006 3.33554436,3.51421095 4.042,3.22895238 C4.74845564,2.94369381 5.47071662,2.71654688 6.2088046,2.54750476 C7.9380393,2.14602974 9.87812718,1.95586021 12.0291264,1.97699048 C13.1257143,2.04038127 14.0693983,2.1882909 14.8602069,2.42072381 C15.6510154,2.65315672 16.3152847,2.93312852 16.8530345,3.26064762 C17.3907843,3.58816672 17.8230865,3.9579408 18.149954,4.36998095 C18.4768216,4.78202111 18.7246045,5.1887726 18.8933103,5.59024762 C19.2728984,6.56223978 19.3467061,7.6398671 19.1147356,8.8231619 C18.8616769,9.94306592 18.3871989,10.9573034 17.6912874,11.8659048 C17.3960522,12.2673798 17.0270137,12.6635663 16.5841609,13.0544762 C16.1413081,13.4453861 15.6193823,13.8045952 15.0183678,14.1321143 C14.4173533,14.4596334 13.7267242,14.7448877 12.9464598,14.9878857 C12.1661953,15.2308838 11.2699591,15.4052058 10.2577241,15.5108571 C10.1101065,15.5319874 9.96776314,15.5425524 9.83068966,15.5425524 C9.69361617,15.5425524 9.55127277,15.5531174 9.40365517,15.5742476 C9.53018454,16.081374 9.6830719,16.6360351 9.86232184,17.2382476 C10.0415718,17.8404602 10.3104427,18.5324659 10.6689425,19.3142857 C11.0274424,20.1172358 11.4544726,20.7722641 11.950046,21.2793905 C12.4456193,21.7865168 12.9253693,22.1879858 13.3893103,22.4838095 C13.916516,22.843024 14.4542578,23.1177133 15.0025517,23.3078857 C15.1079929,23.329016 15.2134324,23.3607109 15.3188736,23.4029714 C15.4032265,23.445232 15.4928501,23.4874919 15.5877471,23.5297524 C15.6826442,23.5720129 15.7617238,23.6248378 15.8249885,23.6882286 C16.056959,23.9417917 16.0464151,24.237611 15.7933563,24.5756952 C15.6035623,24.8081281 15.3979551,24.9930152 15.1765287,25.1303619 C14.9551023,25.2677086 14.7494952,25.3680759 14.5597011,25.4314667 C14.3277306,25.5159877 14.1063076,25.5688126 13.8954253,25.5899429 C13.1784255,25.6955942 12.5405162,25.6322043 11.9816782,25.3997714 C11.4228401,25.1673385 10.9272742,24.8186944 10.4949655,24.3538286 C10.0626568,23.8889628 9.68834641,23.3343016 9.37202299,22.6898286 C9.05569957,22.0453555 8.78155672,21.3744797 8.54958621,20.677181 C8.3176157,19.9798822 8.11728054,19.2773115 7.94857471,18.5694476 C7.77986889,17.8615838 7.63225351,17.2012729 7.50572414,16.5884952 C7.33701831,17.5816177 7.28957051,18.5219003 7.36337931,19.4093714 C7.43718811,20.2968425 7.57953151,21.2688201 7.79041379,22.3253333 C7.85367848,22.621157 7.79041474,22.8747164 7.60062069,23.086019 C7.41082664,23.2973217 7.16831565,23.3712765 6.87308046,23.3078857 C6.57784527,23.2444949 6.26152659,23.1071503 5.92411494,22.8958476 C5.67105621,22.6634147 5.41800127,22.3887254 5.16494253,22.0717714 C4.67991328,21.395603 4.40049845,20.6402073 4.32668966,19.8055619 C4.25288086,18.9709165 4.30032866,18.1098711 4.46903448,17.2224 C4.51121094,16.9899671 4.5692027,16.7258427 4.64301149,16.430019 C4.71682029,16.1341953 4.80644392,15.8172461 4.91188506,15.4791619 C4.55338518,15.4369014 4.23179453,15.378794 3.94710345,15.3048381 C3.66241237,15.2308822 3.41462941,15.1410799 3.20374713,15.0354286 C2.97177662,14.9297772 2.7608975,14.8029976 2.57110345,14.6550857 C2.44457408,14.5705647 2.30750265,14.4543499 2.15988506,14.3064381 C2.01226746,14.1585262 1.99117955,14.0000516 2.09662069,13.8310095 C2.1809736,13.7042279 2.30222909,13.5616008 2.4603908,13.4031238 C2.61855251,13.2446468 2.78725581,13.1125847 2.96650575,13.0069333 C3.14575569,12.901282 3.33554689,12.8220447 3.53588506,12.769219 C3.73622322,12.7163934 3.92074245,12.7216759 4.08944828,12.7850667 L4.27924138,12.8801524 C4.34250606,12.9224129 4.41104178,12.9646728 4.48485057,13.0069333 C4.55865937,13.0491939 4.648283,13.0914538 4.75372414,13.1337143 C4.83807705,13.1548446 4.9224287,13.1865395 5.00678161,13.2288 C5.09113452,13.2710605 5.18075815,13.3027554 5.27565517,13.3238857 C5.3705522,13.345016 5.49180769,13.3661459 5.63942529,13.3872762 C5.74486643,13.0914525 5.85030599,12.8220457 5.95574713,12.5790476 C6.06118827,12.3360496 6.16662783,12.0983377 6.27206897,11.8659048 C6.63056884,10.9150429 6.98906334,10.069845 7.34756322,9.33028571 C7.7060631,8.59072646 8.03292573,7.96739301 8.32816092,7.46026667 C8.66557257,6.86861926 8.97134729,6.35093555 9.24549425,5.9072 C9.26658248,5.86493947 9.29821435,5.82267958 9.3403908,5.78041905 L9.56181609,5.55855238 C9.66725723,5.45290106 9.7937847,5.36838127 9.9414023,5.30499048 C10.0890199,5.24159968 10.2471792,5.25216466 10.4158851,5.33668571 C10.5213262,5.40007651 10.6531256,5.50572624 10.8112874,5.6536381 C10.9694491,5.80154995 11.1223364,5.97058953 11.269954,6.1607619 C11.4175716,6.35093428 11.5440991,6.56223376 11.6495402,6.79466667 C11.7549814,7.02709957 11.8077011,7.259529 11.8077011,7.4919619 C11.8077011,7.70326455 11.7655253,7.89343408 11.6811724,8.06247619 C11.5335548,8.33716963 11.1750603,8.83372339 10.6056782,9.55215238 C10.036296,10.2705814 9.46692239,11.231994 8.89754023,12.436419 C8.81318732,12.6265914 8.73410765,12.8114785 8.66029885,12.9910857 C8.58649005,13.170693 8.51795434,13.345015 8.45468966,13.5140571 C9.21386586,13.4929269 10.0152065,13.4136896 10.8587356,13.2763429 C11.7022648,13.1389961 12.4983334,12.8960017 13.2469655,12.5473524 C13.9955976,12.198703 14.6545949,11.7285617 15.223977,11.1369143 C15.7933592,10.5452669 16.1834855,9.78458878 16.3943678,8.85485714 C16.4787207,8.51677291 16.5050806,8.09417396 16.4734483,7.58704762 C16.4418159,7.07992127 16.2572967,6.59393248 15.9198851,6.12906667 C15.5824734,5.66420085 15.0552756,5.27857931 14.3382759,4.97219048 C13.6212761,4.66580164 12.6196003,4.54430444 11.3332184,4.60769524 C10.0257483,4.67108603 8.83428124,4.89295048 7.75878161,5.27329524 C6.68328198,5.65364 5.72905397,6.09208641 4.89606897,6.58864762 C4.06308396,7.08520883 3.35663891,7.57648011 2.77671264,8.06247619 C2.19678637,8.54847227 1.76975616,8.91824635 1.4956092,9.17180952 Z" id="路径"></path>
                        <path d="M17.0902759,16.2398476 C17.4909522,15.1622041 17.9443423,14.2905938 18.4504598,13.6249905 C18.9565772,12.9593871 19.4626871,12.4522684 19.9688046,12.103619 C20.4749221,11.7549697 20.97576,11.5489527 21.4713333,11.4855619 C21.9669067,11.4221711 22.4044809,11.464431 22.784069,11.6123429 C23.1425688,11.7602547 23.4008958,11.9768367 23.5590575,12.2620952 C23.7172192,12.5473538 23.8173868,12.8484556 23.8595632,13.1654095 C23.8806514,13.2710608 23.8964674,13.3872756 23.9070115,13.5140571 C23.9175556,13.6408387 23.9122836,13.7887484 23.8911954,13.9577905 C23.8701072,14.2536142 23.7962995,14.6392357 23.6697701,15.1146667 C23.5432407,15.5900976 23.3112737,16.0708039 22.9738621,16.5568 C22.6364504,17.0427961 22.1567004,17.5023724 21.5345977,17.9355429 C20.912495,18.3687133 20.0847944,18.68038 19.0514713,18.8705524 C19.0092948,19.2297669 19.0303827,19.578411 19.1147356,19.9164952 C19.1990885,20.2545795 19.4415995,20.4975739 19.8422759,20.6454857 C19.9266288,20.6877462 20.0215244,20.7088762 20.1269655,20.7088762 L20.1585977,20.7088762 L20.1902299,20.7405714 C20.569818,20.782832 20.9283125,20.761702 21.2657241,20.677181 C21.6031358,20.5926599 21.9141825,20.4711627 22.1988736,20.3126857 C22.4835646,20.1542087 22.7366196,19.9746042 22.958046,19.7738667 C23.1794724,19.5731292 23.3745356,19.3776771 23.5432414,19.1875048 C23.5854178,19.1452442 23.6223217,19.1029843 23.653954,19.0607238 C23.6855864,19.0184633 23.7224902,18.9762034 23.7646667,18.9339429 C23.891196,18.7649007 23.9650037,18.669816 23.986092,18.6486857 C24.2180625,18.3317317 24.4289416,18.0042176 24.6187356,17.6661333 C24.8085297,17.3280491 24.9561451,17.0427948 25.0615862,16.8103619 C25.0826744,16.7258408 25.1353942,16.6413211 25.2197471,16.5568 C25.3673647,16.4088881 25.5571559,16.3454983 25.7891264,16.3666286 C25.9156558,16.4088891 25.9947355,16.461714 26.0263678,16.5251048 C26.0580002,16.5884956 26.0738161,16.6624504 26.0738161,16.7469714 C26.0738161,16.8314925 26.0527282,16.9265772 26.0105517,17.0322286 C25.9051106,17.2435312 25.7838551,17.4918081 25.6467816,17.7770667 C25.5097081,18.0623252 25.3357329,18.373992 25.1248506,18.7120762 C25.0404977,18.9233788 24.8401625,19.250893 24.5238391,19.6946286 C24.4816626,19.7580194 24.4342148,19.8266917 24.3814943,19.9006476 C24.3287737,19.9746035 24.260238,20.0644058 24.1758851,20.1700571 C23.7541205,20.6560532 23.2321947,21.1367595 22.610092,21.6121905 C21.9879892,22.0876214 21.2551843,22.3464633 20.4116552,22.3887238 C20.1585964,22.4309843 19.8739096,22.4309843 19.5575862,22.3887238 C18.7773218,22.3042028 18.1710443,22.1245982 17.7387356,21.8499048 C17.306427,21.5752113 16.9848363,21.2371322 16.773954,20.8356571 C16.58416,20.4764426 16.4734484,20.0855386 16.4418161,19.6629333 C16.4101837,19.240328 16.4259997,18.8177291 16.4892644,18.3951238 L16.4892644,18.3634286 C16.5947055,17.7295206 16.7950407,17.0216674 17.0902759,16.2398476 Z M19.7473793,16.7469714 C19.6630264,16.9160135 19.5944907,17.0639232 19.5417701,17.1907048 C19.4890495,17.3174863 19.4416017,17.444266 19.3994253,17.5710476 C19.9688074,17.4865266 20.4538294,17.306922 20.8545057,17.0322286 C21.2551821,16.7575351 21.5925887,16.4511509 21.8667356,16.1130667 C22.1408826,15.7749824 22.3464897,15.4421858 22.4835632,15.1146667 C22.6206367,14.7871476 22.6997164,14.5177407 22.7208046,14.3064381 C22.7629811,13.9260933 22.7260772,13.6989464 22.610092,13.6249905 C22.4941067,13.5510346 22.415027,13.5140571 22.3728506,13.5140571 C22.2674094,13.5140571 22.130338,13.5510346 21.9616322,13.6249905 C21.7929264,13.6989464 21.5978632,13.846856 21.3764368,14.0687238 C21.1550104,14.2905916 20.9072274,14.6128233 20.6330805,15.0354286 C20.3589335,15.4580339 20.0637027,16.0285424 19.7473793,16.7469714 Z" id="合并形状"></path>
                        <path d="M26.8646207,22.2302476 C26.4850326,22.2091174 26.1107222,22.1034676 25.7416782,21.9132952 C25.3726342,21.7231229 25.0879474,21.4114561 24.8876092,20.9782857 C24.687271,20.5451153 24.6029194,19.9693242 24.6345517,19.2508952 C24.6661841,18.5324662 24.8823352,17.6344435 25.2830115,16.5568 C25.6836878,15.4791565 26.1370779,14.6075462 26.6431954,13.9419429 C27.1493129,13.2763395 27.6554228,12.7692208 28.1615402,12.4205714 C28.6676577,12.0719221 29.1684956,11.8659051 29.664069,11.8025143 C30.1596423,11.7391235 30.5972165,11.7813834 30.9768046,11.9292952 C31.4196574,12.0983374 31.7254321,12.3941566 31.8941379,12.8167619 C32.5056965,11.1052105 33.1488779,9.56272433 33.8237011,8.18925714 C34.4985244,6.81578996 35.1100739,5.6325129 35.6583678,4.63939048 C36.3121029,3.47722594 36.9341963,2.45242348 37.5246667,1.56495238 C37.651196,1.41704053 37.7777235,1.30082582 37.9042529,1.21630476 C38.009694,1.1317837 38.1309495,1.06839386 38.268023,1.02613333 C38.4050965,0.983872805 38.5368959,1.01556773 38.6634253,1.12121905 C38.7899547,1.22687037 38.9586579,1.38534498 39.1695402,1.59664762 C39.3804225,1.80795026 39.5649417,2.05094466 39.7231034,2.3256381 C39.8812652,2.60033153 39.9919767,2.88558582 40.0552414,3.18140952 C40.1185061,3.47723323 40.0763302,3.76248752 39.9287126,4.03718095 C39.8021833,4.22735333 39.5596723,4.54958503 39.2011724,5.00388571 C38.8426725,5.4581864 38.4156423,6.03925995 37.920069,6.74712381 C37.4244956,7.45498767 36.8972978,8.29490308 36.3384598,9.26689524 C35.7796217,10.2388874 35.236608,11.3376447 34.7094023,12.5632 C34.3719907,13.36615 34.055672,14.2219129 33.7604368,15.1305143 C33.4652016,16.0391157 33.2016027,17.0005283 32.9696322,18.014781 C32.8431028,18.6486889 32.800927,19.1558076 32.8431034,19.5361524 L32.8431034,19.6312381 C32.8852799,19.863671 33.0012634,20.0115806 33.1910575,20.0749714 C33.423028,20.1594925 33.6708109,20.0908202 33.9344138,19.8689524 C34.1980166,19.6470846 34.4563436,19.3723953 34.7094023,19.0448762 C34.962461,18.7173571 35.1891561,18.368713 35.3894943,17.9989333 C35.5898324,17.6291537 35.7532637,17.328052 35.8797931,17.095619 C35.9008813,17.011098 35.9536011,16.9265782 36.037954,16.8420571 C36.1855716,16.6941453 36.3753628,16.6307554 36.6073333,16.6518857 C36.8182156,16.7152765 36.9236552,16.8420562 36.9236552,17.0322286 C36.9236552,17.1167496 36.9025673,17.2118344 36.8603908,17.3174857 C36.691685,17.6767002 36.4280861,18.1838189 36.0695862,18.8388571 C35.7110863,19.4938953 35.2998721,20.1066638 34.835931,20.677181 C34.7304899,20.8250928 34.6250503,20.9624375 34.5196092,21.089219 C34.3087269,21.3427822 34.0978478,21.5540817 33.8869655,21.7231238 C33.8447891,21.7442541 33.8184292,21.7601015 33.8078851,21.7706667 C33.7973409,21.7812318 33.7709811,21.7970793 33.7288046,21.8182095 C33.6022752,21.9238608 33.4546598,22.0136631 33.285954,22.087619 C33.1172482,22.161575 32.927457,22.2091174 32.7165747,22.2302476 C32.5267807,22.2302476 32.3791653,22.2196826 32.2737241,22.1985524 C31.9152243,22.1140313 31.6305375,21.9185793 31.4196552,21.6121905 C31.2087729,21.3058016 31.0506136,20.9782875 30.9451724,20.6296381 C30.8397313,20.2809887 30.7659236,19.9481921 30.7237471,19.6312381 C30.6815707,19.3142841 30.6604828,19.0924197 30.6604828,18.9656381 C30.407424,19.4727644 30.1227372,19.9270583 29.8064138,20.3285333 C29.4900904,20.7300084 29.1684997,21.07337 28.8416322,21.3586286 C28.5147646,21.6438871 28.18263,21.8657516 27.8452184,22.0242286 C27.5078067,22.1827056 27.1809441,22.2513779 26.8646207,22.2302476 Z M27.9401149,17.0639238 C27.5394386,17.9513949 27.2969276,18.6275532 27.2125747,19.092419 C27.1282218,19.5572849 27.1071339,19.905929 27.1493103,20.1383619 C27.212575,20.3919251 27.3496465,20.5398347 27.5605287,20.5820952 C27.9612051,20.645486 28.3513314,20.460599 28.7309195,20.0274286 C29.1105076,19.5942582 29.4584582,19.1029869 29.7747816,18.5536 C30.1332815,17.9196921 30.481232,17.1801439 30.8186437,16.3349333 C31.0084377,15.827807 31.1191493,15.415773 31.1507816,15.098819 C31.182414,14.7818651 31.177142,14.5335882 31.1349655,14.353981 C31.0927891,14.1743737 31.0295253,14.0528765 30.9451724,13.9894857 C30.8608195,13.9260949 30.7870118,13.883835 30.7237471,13.8627048 C30.6815707,13.8415745 30.5866751,13.836292 30.4390575,13.8468571 C30.2914399,13.8574223 30.0963767,13.9577895 29.8538621,14.1479619 C29.6113474,14.3381343 29.3319326,14.6550835 29.0156092,15.098819 C28.6992858,15.5425546 28.3407913,16.197583 27.9401149,17.0639238 Z" id="合并形状"></path>
                        <path d="M43.598046,21.754819 C43.3660755,21.8816006 43.1341084,21.9608379 42.9021379,21.9925333 C42.6701674,22.0242287 42.4592883,22.0295112 42.2694943,22.008381 C42.0375237,21.9872507 41.8266446,21.9449908 41.6368506,21.8816 C41.2572625,21.7125579 40.9883916,21.4325861 40.8302299,21.0416762 C40.6720682,20.6507663 40.5824445,20.2017549 40.5613563,19.6946286 C40.0763271,20.370797 39.5438573,20.9307406 38.963931,21.3744762 C38.3840048,21.8182117 37.7777273,21.9978163 37.1450805,21.9132952 L37.0501839,21.9132952 C36.4808018,21.8287742 36.0801314,21.5857798 35.8481609,21.1843048 C35.6161904,20.7828297 35.479119,20.3602308 35.4369425,19.9164952 C35.3947661,19.5572807 35.4000381,19.1927892 35.4527586,18.8230095 C35.5054792,18.4532299 35.5634709,18.1415632 35.6267356,17.888 C35.7321768,17.5076552 35.8270724,17.1431636 35.9114253,16.7945143 C35.9957782,16.4458649 36.0801298,16.1236332 36.1644828,15.8278095 C36.2699239,15.5319858 36.3700915,15.2467315 36.4649885,14.9720381 C36.5598855,14.6973447 36.6389652,14.4649152 36.7022299,14.2747429 C36.7444063,14.1902218 36.7707662,14.1109845 36.7813103,14.0370286 C36.7918545,13.9630726 36.8182143,13.8838353 36.8603908,13.7993143 C36.9658319,13.4612301 37.0765435,13.1389984 37.1925287,12.8326095 C37.308514,12.5262207 37.4192255,12.2568139 37.5246667,12.024381 C37.6301078,11.7708178 37.7250034,11.5278234 37.8093563,11.2953905 C37.8093563,11.2742602 37.8199003,11.2531303 37.8409885,11.232 C37.8409885,11.2108697 37.8620764,11.1580449 37.9042529,11.0735238 C37.9464293,10.9890028 38.014965,10.904483 38.1098621,10.8199619 C38.2047591,10.7354408 38.3154706,10.7143109 38.442,10.7565714 C38.6107058,10.798832 38.8479448,10.8991992 39.1537241,11.0576762 C39.4595034,11.2161532 39.7389183,11.4433001 39.991977,11.7391238 C40.0130652,11.7602541 40.0446971,11.802514 40.0868736,11.8659048 C40.1079618,11.9081653 40.1290497,11.9609902 40.1501379,12.024381 C40.1712262,12.0877717 40.1817701,12.1617266 40.1817701,12.2462476 C40.1817701,12.4575503 40.1079624,12.7005447 39.9603448,12.9752381 C39.9603448,12.9963684 39.9550728,13.0122158 39.9445287,13.022781 C39.9339846,13.0333461 39.9287126,13.0491935 39.9287126,13.0703238 C39.8865362,13.1125843 39.8180005,13.2446465 39.7231034,13.4665143 C39.6282064,13.6883821 39.5385828,13.8838341 39.4542299,14.0528762 C39.369877,14.2219183 39.2907973,14.4015229 39.2169885,14.5916952 C39.1431797,14.7818676 39.074644,14.9403422 39.0113793,15.0671238 C38.8637617,15.4685988 38.7214183,15.8859153 38.5843448,16.3190857 C38.4472713,16.7522561 38.3049279,17.2118325 38.1573103,17.6978286 C38.0940457,17.8668707 38.0255099,18.1204301 37.9517011,18.4585143 C37.8778924,18.7965985 37.8620764,19.0818528 37.9042529,19.3142857 C37.9253411,19.6312397 38.0096927,19.8214092 38.1573103,19.8848 C38.220575,19.9481908 38.2943827,19.9693207 38.3787356,19.9481905 C38.6739708,19.990451 38.9850175,19.8214114 39.3118851,19.4410667 C39.6387526,19.0607219 39.9445273,18.616993 40.2292184,18.1098667 C40.5139095,17.6027403 40.7669644,17.1061866 40.9883908,16.6201905 C41.2098172,16.1341944 41.3521606,15.8066802 41.4154253,15.6376381 C41.5841311,15.151642 41.7528344,14.6920657 41.9215402,14.2588952 C42.0902461,13.8257248 42.2484054,13.4401033 42.396023,13.102019 C42.5647288,12.7216743 42.7334321,12.3624652 42.9021379,12.024381 C42.9443144,11.8975994 43.0075781,11.7919496 43.091931,11.7074286 C43.1551957,11.6229075 43.2290034,11.5489527 43.3133563,11.4855619 C43.3977092,11.4221711 43.4926048,11.4116061 43.598046,11.4538667 C43.7667518,11.5172575 44.0092628,11.6440371 44.3255862,11.8342095 C44.6419096,12.0243819 44.9476843,12.2673763 45.2429195,12.5632 C45.3061842,12.6688513 45.34836,12.785066 45.3694483,12.9118476 C45.3905365,13.0174989 45.3852645,13.1548436 45.3536322,13.3238857 C45.3219998,13.4929278 45.2429202,13.6936623 45.1163908,13.9260952 C45.0320379,14.0740071 44.9055104,14.3064365 44.7368046,14.6233905 C44.5680988,14.9403444 44.3835795,15.304836 44.1832414,15.7168762 C43.9829032,16.1289163 43.78784,16.5620803 43.598046,17.016381 C43.4082519,17.4706816 43.2659085,17.8932806 43.1710115,18.2841905 C43.0761145,18.6751004 43.0339386,19.007897 43.0444828,19.2825905 C43.0550269,19.5572839 43.1657384,19.7263235 43.3766207,19.7897143 C43.6296794,19.8531051 43.8880063,19.7791503 44.1516092,19.5678476 C44.415212,19.356545 44.673539,19.0818557 44.9265977,18.7437714 C45.1796564,18.4056872 45.4063515,18.0517606 45.6066897,17.681981 C45.8070278,17.3122013 45.9704591,17.0110996 46.0969885,16.7786667 C46.1180767,16.6941456 46.1707965,16.6096258 46.2551494,16.5251048 C46.3816788,16.3983232 46.57147,16.3454983 46.8245287,16.3666286 C46.9510581,16.3877588 47.0301378,16.4300187 47.0617701,16.4934095 C47.0934025,16.5568003 47.1092184,16.6307551 47.1092184,16.7152762 C47.1092184,16.7997972 47.0881305,16.905447 47.045954,17.0322286 C46.9194247,17.306922 46.7401774,17.6661311 46.5082069,18.1098667 C46.2762364,18.5536022 46.0073655,19.0078961 45.7015862,19.4727619 C45.3958069,19.9376277 45.0636723,20.3813566 44.7051724,20.8039619 C44.3466725,21.2265672 43.9776341,21.5435164 43.598046,21.754819 Z" id="路径"></path>
                        <path d="M45.6541379,18.3634286 C45.7595791,17.7295206 45.9599142,17.0216674 46.2551494,16.2398476 C46.6558258,15.1622041 47.1039439,14.2905938 47.5995172,13.6249905 C48.0950906,12.9593871 48.6012005,12.4522684 49.1178621,12.103619 C49.6345237,11.7549697 50.1406335,11.5489527 50.6362069,11.4855619 C51.1317803,11.4221711 51.5693544,11.464431 51.9489425,11.6123429 C52.2441777,11.7179942 52.4708728,11.8764688 52.6290345,12.0877714 C52.7871962,12.2990741 52.8979077,12.5315035 52.9611724,12.7850667 C53.0244371,13.0386298 53.056069,13.2921892 53.056069,13.5457524 C53.056069,13.7993156 53.0349811,14.031745 52.9928046,14.2430476 C52.9717164,14.3486989 52.8715488,14.4437837 52.6922989,14.5283048 C52.5130489,14.6128258 52.3812495,14.6656507 52.2968966,14.686781 C52.2336319,14.7079112 52.1809121,14.6973462 52.1387356,14.6550857 C52.1176474,14.6339554 52.1071034,14.6128255 52.1071034,14.5916952 C52.1492799,14.16909 52.1123761,13.8944006 51.9963908,13.767619 C51.8804056,13.6408375 51.780238,13.5668826 51.6958851,13.5457524 C51.6537086,13.5246221 51.558813,13.5193396 51.4111954,13.5299048 C51.2635778,13.5404699 51.0685146,13.6408371 50.826,13.8310095 C50.5834854,14.0211819 50.3040705,14.3381311 49.9877471,14.7818667 C49.6714237,15.2256022 49.3129292,15.8806306 48.9122529,16.7469714 C48.6802824,17.2118372 48.522123,17.6027413 48.4377701,17.9196952 C48.3955937,18.0464768 48.3428739,18.2419288 48.2796092,18.5060571 C48.2163445,18.7701854 48.1899846,19.0395923 48.2005287,19.3142857 C48.2110728,19.5889792 48.2743366,19.8531035 48.3903218,20.1066667 C48.5063071,20.3602298 48.7119142,20.5398344 49.0071494,20.6454857 C49.0915023,20.6877462 49.175854,20.7088762 49.2602069,20.7088762 L49.2918391,20.7088762 C49.3129273,20.7088762 49.3340152,20.7194412 49.3551034,20.7405714 C49.7346916,20.782832 50.0931861,20.761702 50.4305977,20.677181 C50.7680093,20.5926599 51.079056,20.4711627 51.3637471,20.3126857 C51.6484382,20.1542087 51.9014931,19.9746042 52.1229195,19.7738667 C52.3443459,19.5731292 52.5394091,19.3776771 52.7081149,19.1875048 C52.7502914,19.1452442 52.8135551,19.0607244 52.897908,18.9339429 C52.9611727,18.8705521 53.0086205,18.8177272 53.0402529,18.7754667 C53.0718852,18.7332061 53.1087891,18.6909462 53.1509655,18.6486857 C53.382936,18.3317317 53.5938151,18.0042176 53.7836092,17.6661333 C53.9734032,17.3280491 54.1210186,17.0427948 54.2264598,16.8103619 C54.247548,16.7258408 54.3002678,16.6413211 54.3846207,16.5568 C54.5322383,16.4088881 54.7220295,16.3454983 54.954,16.3666286 C55.0805294,16.4088891 55.159609,16.461714 55.1912414,16.5251048 C55.2228737,16.5884956 55.2386897,16.6624504 55.2386897,16.7469714 C55.2386897,16.8314925 55.2176017,16.9265772 55.1754253,17.0322286 C54.964543,17.4759641 54.6693122,18.0359077 54.2897241,18.7120762 C54.2053712,18.9233788 54.0050361,19.250893 53.6887126,19.6946286 C53.6465362,19.7580194 53.5938164,19.8266917 53.5305517,19.9006476 C53.467287,19.9746035 53.4040233,20.0644058 53.3407586,20.1700571 C52.9189941,20.6560532 52.3970682,21.1367595 51.7749655,21.6121905 C51.1528628,22.0876214 50.4200579,22.3464633 49.5765287,22.3887238 C49.2812935,22.4309843 48.9966067,22.4309843 48.7224598,22.3887238 C47.9421953,22.3042028 47.3359179,22.1245982 46.9036092,21.8499048 C46.4713005,21.5752113 46.1497099,21.2371322 45.9388276,20.8356571 C45.7490335,20.4764426 45.638322,20.0855386 45.6066897,19.6629333 C45.5750573,19.240328 45.5908732,18.8177291 45.6541379,18.3951238 L45.6541379,18.3634286 Z" id="路径"></path>
                        <path d="M58.1804828,12.2462476 C57.8219829,13.0491977 57.4951203,13.9049605 57.1998851,14.8135619 C56.9046499,15.7221633 56.641051,16.6941409 56.4090805,17.7295238 C56.2825511,18.3423015 56.2403753,18.8388552 56.2825517,19.2192 C56.2825517,19.2403303 56.2878237,19.2561777 56.2983678,19.2667429 C56.3089119,19.277308 56.3141839,19.3037204 56.3141839,19.345981 C56.3563604,19.5784139 56.4617999,19.7263235 56.6305057,19.7897143 C56.8624763,19.8531051 57.1155312,19.7791503 57.3896782,19.5678476 C57.6638251,19.356545 57.922152,19.0818557 58.1646667,18.7437714 C58.4071813,18.4056872 58.6338763,18.0517606 58.8447586,17.681981 C59.0556409,17.3122013 59.2138002,17.0110996 59.3192414,16.7786667 C59.3614178,16.6941456 59.4246816,16.6096258 59.5090345,16.5251048 C59.6355639,16.3983232 59.8148111,16.3454983 60.0467816,16.3666286 C60.2576639,16.3877588 60.3631034,16.5039735 60.3631034,16.7152762 C60.3631034,16.7997972 60.3420155,16.905447 60.2998391,17.0322286 C60.1311333,17.3914431 59.8675344,17.8932793 59.5090345,18.5377524 C59.1505346,19.1822254 58.7498643,19.8002764 58.3070115,20.3919238 C58.1804821,20.5187054 58.0644986,20.6454851 57.9590575,20.7722667 C57.7481752,21.0258298 57.5372961,21.2371293 57.3264138,21.4061714 C57.3053256,21.4273017 57.2842377,21.4431492 57.2631494,21.4537143 C57.2420612,21.4642794 57.2209733,21.4906919 57.1998851,21.5329524 C57.0522675,21.6174734 56.8941081,21.6967107 56.7254023,21.7706667 C56.5566965,21.8446226 56.3669053,21.892165 56.156023,21.9132952 C56.0716701,21.9344255 55.9240547,21.9238605 55.7131724,21.8816 C55.3124961,21.7759487 55.0067214,21.5488017 54.7958391,21.2001524 C54.5849568,20.851503 54.4267975,20.4764465 54.3213563,20.0749714 C54.2159152,19.6101056 54.1526514,19.1029869 54.1315632,18.5536 C54.110475,18.3211671 54.105203,18.0993026 54.1157471,17.888 C54.1262912,17.6766974 54.1421072,17.4548329 54.1631954,17.2224 C54.2053719,16.7575342 54.2686356,16.3085228 54.3529885,15.8753524 C54.4373414,15.442182 54.532237,15.0565604 54.6376782,14.7184762 C54.7220311,14.3381314 54.8274706,13.9683574 54.954,13.6091429 C55.3546763,12.4469783 55.7658906,11.3640685 56.1876552,10.360381 C56.6094197,9.35669339 57.031178,8.41112825 57.4529425,7.52365714 C56.018943,7.52365714 54.595509,7.51837466 53.1825977,7.50780952 C51.7696864,7.49724439 50.3462524,7.50252688 48.9122529,7.52365714 C48.6802824,7.52365714 48.532667,7.47083227 48.4694023,7.36518095 C48.4272258,7.30179016 48.395594,7.23840032 48.3745057,7.17500952 C48.3112411,6.79466476 48.3428729,6.47243307 48.4694023,6.20830476 C48.5959317,5.94417646 48.7909949,5.73815947 49.0545977,5.59024762 C49.3182006,5.44233577 49.6187033,5.34196852 49.9561149,5.28914286 C50.2935266,5.2363172 50.6414771,5.22046974 50.999977,5.2416 C52.2652707,5.28386053 53.5094575,5.33140291 54.7325747,5.38422857 C55.9556919,5.43705423 57.1893348,5.49516159 58.4335402,5.55855238 C58.7920401,4.88238392 59.1241747,4.27489793 59.429954,3.73607619 C59.7357333,3.19725445 60.0046042,2.74824307 60.2365747,2.38902857 C60.4896334,1.96642328 60.7321444,1.5966492 60.9641149,1.27969524 C61.0906443,1.13178339 61.2171718,1.01556868 61.3437011,0.931047619 C61.4491423,0.846526562 61.5703978,0.783136719 61.7074713,0.74087619 C61.8445447,0.698615662 61.9868882,0.730310583 62.1345057,0.835961905 C62.2610351,0.920482962 62.4297384,1.06839259 62.6406207,1.27969524 C62.851503,1.49099788 63.0360222,1.73399228 63.1941839,2.00868571 C63.3523456,2.28337915 63.4577852,2.57391593 63.5105057,2.88030476 C63.5632263,3.1866936 63.5157785,3.4666654 63.3681609,3.72022857 C63.2627198,3.88927069 63.0834725,4.14283006 62.8304138,4.48091429 L61.8814483,5.74872381 C62.598448,5.79098434 63.5263161,5.82796175 64.6650805,5.85965714 C65.8038448,5.89135254 67.0480316,5.92832995 68.3976782,5.97059048 C69.7473248,6.012851 71.1549429,6.0551109 72.6205747,6.09737143 C74.0862066,6.13963196 75.4938247,6.17660937 76.8434713,6.20830476 C78.1931179,6.24000016 79.4478486,6.27169508 80.6077011,6.30339048 C81.7675537,6.33508587 82.7165097,6.36149831 83.4545977,6.38262857 C83.5178624,6.38262857 83.61803,6.39319355 83.7551034,6.41432381 C83.8921769,6.43545407 84.0239764,6.467149 84.1505057,6.50940952 C84.2770351,6.55167005 84.3877467,6.59921243 84.4826437,6.6520381 C84.5775407,6.70486376 84.6249885,6.77353609 84.6249885,6.85805714 C84.6249885,6.9425782 84.5300929,7.01653302 84.3402989,7.07992381 C84.1505048,7.1433146 83.9343537,7.19085698 83.6918391,7.22255238 C83.4493245,7.25424778 83.2015415,7.27537772 82.9484828,7.28594286 C82.695424,7.29650799 82.4950889,7.30179048 82.3474713,7.30179048 C81.6093833,7.344051 80.6656992,7.37574593 79.5163908,7.39687619 C78.3670824,7.41800645 77.1123516,7.4391364 75.7521609,7.46026667 C74.3919702,7.48139693 72.9790801,7.49724439 71.5134483,7.50780952 C70.0478164,7.51837466 68.6349263,7.52365714 67.2747356,7.52365714 L60.6794253,7.52365714 C60.2576607,8.15756507 59.8359025,8.86541831 59.4141379,9.6472381 C58.9923734,10.4290579 58.5811591,11.2953857 58.1804828,12.2462476 Z" id="路径"></path>
                        <path d="M63.4630575,12.5948952 C63.5474104,12.6794163 63.6001302,12.785066 63.6212184,12.9118476 C63.6423066,13.0174989 63.6370346,13.1548436 63.6054023,13.3238857 C63.57377,13.4929278 63.4946903,13.6936623 63.3681609,13.9260952 C63.283808,14.0740071 63.1572805,14.3064365 62.9885747,14.6233905 C62.8198689,14.9403444 62.6353497,15.304836 62.4350115,15.7168762 C62.2346733,16.1289163 62.0396101,16.5620803 61.8498161,17.016381 C61.660022,17.4706816 61.5124067,17.8932806 61.4069655,18.2841905 C61.3015244,18.6751004 61.2593486,19.007897 61.2804368,19.2825905 C61.301525,19.5572839 61.4175085,19.7263235 61.6283908,19.7897143 C61.8603613,19.8742353 62.1081443,19.805563 62.3717471,19.5836952 C62.63535,19.3618275 62.8936769,19.0871381 63.1467356,18.759619 C63.3997944,18.4320999 63.6264894,18.0834558 63.8268276,17.7136762 C64.0271658,17.3438966 64.1905971,17.0427948 64.3171264,16.8103619 C64.3382147,16.7258408 64.3909344,16.6413211 64.4752874,16.5568 C64.622905,16.4088881 64.8126962,16.3454983 65.0446667,16.3666286 C65.2555489,16.4300194 65.3609885,16.556799 65.3609885,16.7469714 C65.3609885,16.8314925 65.3399006,16.9265772 65.2977241,17.0322286 C65.1711948,17.306922 64.9866755,17.6714136 64.7441609,18.1257143 C64.5016463,18.580015 64.2275034,19.0395913 63.9217241,19.5044571 C63.6159448,19.969323 63.2890822,20.4077694 62.9411264,20.8198095 C62.5931707,21.2318497 62.2294042,21.5435164 61.8498161,21.754819 C61.6178456,21.9027309 61.3858786,21.9925332 61.153908,22.0242286 C60.9219375,22.055924 60.7110584,22.0612065 60.5212644,22.0400762 C60.2892939,22.0189459 60.0784147,21.976686 59.8886207,21.9132952 C59.5090326,21.7442531 59.2348897,21.4695638 59.0661839,21.089219 C58.8974781,20.7088743 58.8078545,20.2757104 58.7973103,19.7897143 C58.7867662,19.3037182 58.839486,18.770187 58.9554713,18.1891048 C59.0714565,17.6080225 59.2137999,17.0322314 59.3825057,16.4617143 C59.7831821,15.1305076 60.3630997,13.6514113 61.1222759,12.024381 C61.1644523,11.8975994 61.2277161,11.7919496 61.312069,11.7074286 C61.3753336,11.6229075 61.4491413,11.5489527 61.5334943,11.4855619 C61.6178472,11.4221711 61.7127428,11.4116061 61.8181839,11.4538667 C62.007978,11.5172575 62.2610329,11.6440371 62.5773563,11.8342095 C62.8936797,12.0243819 63.1889105,12.2779413 63.4630575,12.5948952 Z" id="路径"></path>
                        <path d="M62.5773563,10.5030095 C62.3453858,10.2494464 62.2715781,9.9483446 62.355931,9.59969524 C62.4402839,9.25104588 62.5351795,8.98163905 62.6406207,8.79146667 C62.7460618,8.62242455 62.8462294,8.47451492 62.9411264,8.34773333 C63.0360235,8.22095175 63.1151031,8.10473704 63.1783678,7.99908571 L63.3681609,7.71382857 C63.4736021,7.56591672 63.5790416,7.44970201 63.6844828,7.36518095 C63.7899239,7.28065989 63.8953635,7.22255254 64.0008046,7.19085714 C64.1062457,7.15916175 64.2327732,7.19613915 64.3803908,7.30179048 C64.5069202,7.38631153 64.6598075,7.52365619 64.8390575,7.71382857 C65.0183074,7.90400095 65.1764667,8.11530043 65.3135402,8.34773333 C65.4506137,8.58016624 65.5455093,8.82844312 65.5982299,9.09257143 C65.6509505,9.35669973 65.6140466,9.60497662 65.4875172,9.83740952 C65.4031643,9.96419111 65.2819088,10.1332307 65.1237471,10.3445333 C64.9655854,10.555836 64.7494343,10.8410903 64.4752874,11.2003048 C64.3698462,11.3270863 64.2327748,11.3851937 64.064069,11.3746286 C63.8953631,11.3640634 63.7161159,11.3112386 63.5263218,11.2161524 C63.3365278,11.1210662 63.1572805,11.010134 62.9885747,10.8833524 C62.8198689,10.7565708 62.6827975,10.6297911 62.5773563,10.5030095 Z" id="路径"></path>
                        <path d="M71.6241609,16.6201905 C71.3921904,17.1273168 71.0916877,17.7242378 70.7226437,18.4109714 C70.3535997,19.097705 69.9265695,19.7368859 69.4415402,20.3285333 C68.956511,20.9201807 68.4134973,21.3903221 67.8124828,21.7389714 C67.2114683,22.0876208 66.5735589,22.1668581 65.8987356,21.9766857 C65.5191475,21.8710344 65.2133728,21.6861474 64.9814023,21.422019 C64.7494318,21.1578907 64.5649126,20.8409415 64.4278391,20.4711619 C64.2907656,20.1013823 64.201142,19.6999133 64.1589655,19.2667429 C64.1167891,18.8335724 64.1167891,18.405691 64.1589655,17.9830857 C64.201142,17.4336988 64.2854936,16.9107326 64.412023,16.4141714 C64.5385524,15.9176102 64.6756238,15.4791638 64.8232414,15.098819 C64.9919472,14.6550835 65.1711945,14.2430495 65.3609885,13.8627048 C65.7194884,13.1865363 66.1096147,12.6265927 66.5313793,12.1828571 C66.8898792,11.8025124 67.3116374,11.5066931 67.7966667,11.2953905 C68.2816959,11.0840878 68.7983497,11.1474777 69.3466437,11.4855619 C69.557526,11.2742593 69.794765,11.1157847 70.0583678,11.0101333 C70.3219707,10.904482 70.6013855,10.8727871 70.8966207,10.9150476 C71.3605617,10.9784384 71.7085123,11.1791729 71.9404828,11.5172571 C72.1724533,11.8553414 72.3147967,12.2462454 72.3675172,12.689981 C72.4202378,13.1337165 72.4149658,13.5985753 72.3517011,14.0845714 C72.2884365,14.5705675 72.2146288,14.9826015 72.1302759,15.3206857 C72.6785698,15.1516436 73.1846797,14.9086492 73.6486207,14.5916952 C74.1125617,14.2747413 74.4605123,14.000052 74.6924828,13.767619 C74.7979239,13.6619677 74.8928195,13.5880129 74.9771724,13.5457524 C75.0615253,13.5034919 75.130061,13.4929269 75.1827816,13.5140571 C75.2355022,13.5351874 75.272406,13.6302722 75.2934943,13.7993143 C75.3145825,13.9260959 75.3145825,14.0528756 75.2934943,14.1796571 C75.2513178,14.4332203 75.1564222,14.6550848 75.0088046,14.8452571 C74.6713929,15.2256019 74.1969149,15.5900935 73.5853563,15.9387429 C72.9737977,16.2873922 72.3200724,16.5145392 71.6241609,16.6201905 Z M69.5997011,13.7993143 C69.5786129,14.0528775 69.5997008,14.2694594 69.6629655,14.4490667 C69.7262302,14.6286739 69.8105818,14.781866 69.916023,14.9086476 C70.0214641,15.0354292 70.1374476,15.1357965 70.263977,15.2097524 C70.3905064,15.2837083 70.4959459,15.3312507 70.5802989,15.352381 C70.875534,14.4015191 70.9704296,13.6936658 70.8649885,13.2288 C70.822812,13.0808881 70.7384604,12.9699559 70.611931,12.896 C70.4854017,12.8220441 70.3536022,12.8009141 70.2165287,12.8326095 C70.0794553,12.8643049 69.9529278,12.9541072 69.8369425,13.102019 C69.7209573,13.2499309 69.6418776,13.4823603 69.5997011,13.7993143 Z M66.4997471,17.9513905 C66.3310413,18.5219076 66.2572336,18.9762015 66.2783218,19.3142857 C66.2994101,19.6523699 66.3521298,19.9059293 66.4364828,20.0749714 C66.5208357,20.2862741 66.6473631,20.4130538 66.816069,20.4553143 C67.0902159,20.5398353 67.3854467,20.4764455 67.7017701,20.2651429 C68.0180935,20.0538402 68.3238683,19.7580209 68.6191034,19.3776762 C68.9143386,18.9973314 69.1937535,18.5536025 69.4573563,18.0464762 C69.7209592,17.5393498 69.9581982,17.0216661 70.1690805,16.4934095 C69.8738453,16.4088885 69.5891585,16.2504139 69.3150115,16.017981 C68.9565116,15.7221573 68.7087287,15.3629481 68.5716552,14.9403429 C68.4345817,14.5177376 68.3871339,14.0845736 68.4293103,13.6408381 C68.1551634,13.9155315 67.9021084,14.2853056 67.6701379,14.7501714 C67.4381674,15.2150372 67.2378323,15.6904611 67.0691264,16.1764571 C66.8582442,16.725844 66.668453,17.3174825 66.4997471,17.9513905 Z" id="合并形状"></path>
                        <path d="M75.1037011,16.9054476 C75.5043775,16.2081489 75.9419517,15.5055781 76.4164368,14.7977143 C76.8909219,14.0898504 77.3706719,13.4612345 77.8557011,12.9118476 C78.3407304,12.3624607 78.8099364,11.9451443 79.2633333,11.6598857 C79.7167302,11.3746271 80.1332165,11.3270848 80.5128046,11.5172571 C80.7236869,11.6017782 80.9661979,11.7285579 81.2403448,11.8976 C81.5144918,12.0666421 81.7675467,12.2885066 81.9995172,12.5632 C82.0838702,12.6688513 82.1365899,12.785066 82.1576782,12.9118476 C82.1787664,13.0174989 82.1734944,13.1548436 82.1418621,13.3238857 C82.1102297,13.4929278 82.0311501,13.6936623 81.9046207,13.9260952 C81.8202678,14.0740071 81.6937403,14.3064365 81.5250345,14.6233905 C81.3563287,14.9403444 81.1718094,15.304836 80.9714713,15.7168762 C80.7711331,16.1289163 80.5760699,16.5620803 80.3862759,17.016381 C80.1964818,17.4706816 80.0541384,17.8932806 79.9592414,18.2841905 C79.8643444,18.6751004 79.8221685,19.007897 79.8327126,19.2825905 C79.8432568,19.5572839 79.9539683,19.7263235 80.1648506,19.7897143 C80.3968211,19.8531051 80.649876,19.7791503 80.924023,19.5678476 C81.19817,19.356545 81.4564969,19.0818557 81.6990115,18.7437714 C81.9415261,18.4056872 82.1682212,18.0517606 82.3791034,17.681981 C82.5899857,17.3122013 82.7481451,17.0110996 82.8535862,16.7786667 C82.8746744,16.6941456 82.9273942,16.6096258 83.0117471,16.5251048 C83.1382765,16.3983232 83.3280677,16.3454983 83.5811264,16.3666286 C83.7920087,16.3877588 83.8974483,16.5039735 83.8974483,16.7152762 C83.8974483,16.7997972 83.8763604,16.905447 83.8341839,17.0322286 C83.7076545,17.306922 83.5231353,17.6661311 83.2806207,18.1098667 C83.0381061,18.5536022 82.7639632,19.0078961 82.4581839,19.4727619 C82.1524046,19.9376277 81.825542,20.3813566 81.4775862,20.8039619 C81.1296304,21.2265672 80.765864,21.5435164 80.3862759,21.754819 C80.1543054,21.8816006 79.9223383,21.9608379 79.6903678,21.9925333 C79.4583973,22.0242287 79.2475182,22.0295112 79.0577241,22.008381 C78.8257536,21.9872507 78.6148745,21.9449908 78.4250805,21.8816 C77.8978748,21.6491671 77.5762841,21.2265681 77.4602989,20.6137905 C77.3443136,20.0010128 77.3390416,19.3037245 77.4444828,18.5219048 C77.5499239,17.740085 77.7397151,16.9424295 78.0138621,16.1289143 C78.288009,15.3153991 78.5516079,14.5811334 78.8046667,13.9260952 L78.7730345,13.9577905 C78.1614759,14.5283076 77.5710143,15.2255959 77.0016322,16.0496762 C76.4955147,16.7469749 75.9630449,17.6080203 75.4042069,18.6328381 C74.8453689,19.6576559 74.323443,20.8462155 73.8384138,22.1985524 C73.8173256,22.325334 73.7698778,22.4045713 73.696069,22.4362667 C73.6222602,22.4679621 73.5642684,22.4838095 73.522092,22.4838095 C73.1003274,22.441549 72.7629208,22.3464642 72.5098621,22.1985524 C72.2568033,22.0506405 72.0670121,21.8921659 71.9404828,21.7231238 C71.8350416,21.6174725 71.7823218,21.4906928 71.7823218,21.342781 C71.7612336,21.2582599 71.7612336,21.1948701 71.7823218,21.1526095 C71.8034101,20.7511345 71.8561298,20.3126881 71.9404828,19.8372571 C72.0248357,19.3618262 72.1197313,18.8864024 72.2251724,18.4109714 C72.3306136,17.9355405 72.4413251,17.4759641 72.5573103,17.0322286 C72.6732956,16.588493 72.7840071,16.187024 72.8894483,15.8278095 C72.9948894,15.5319858 73.095057,15.2467315 73.189954,14.9720381 C73.284851,14.6973447 73.3639307,14.4649152 73.4271954,14.2747429 C73.4482836,14.1690915 73.5010034,14.0106169 73.5853563,13.7993143 C73.6907975,13.4612301 73.801509,13.1389984 73.9174943,12.8326095 C74.0334795,12.5262207 74.144191,12.2568139 74.2496322,12.024381 C74.3550733,11.7708178 74.4499689,11.5278234 74.5343218,11.2953905 C74.5343218,11.2742602 74.5448658,11.2531303 74.565954,11.232 C74.565954,11.2108697 74.5870419,11.1580449 74.6292184,11.0735238 C74.6713948,10.9890028 74.7399306,10.904483 74.8348276,10.8199619 C74.9297246,10.7354408 75.0404361,10.7143109 75.1669655,10.7565714 C75.3356713,10.798832 75.5729103,10.8991992 75.8786897,11.0576762 C76.184469,11.2161532 76.4638838,11.4433001 76.7169425,11.7391238 C76.7380308,11.7602541 76.7696626,11.802514 76.8118391,11.8659048 C76.8329273,11.9081653 76.8540152,11.9609902 76.8751034,12.024381 C76.8961917,12.0877717 76.9067356,12.1617266 76.9067356,12.2462476 C76.9067356,12.4575503 76.8329279,12.7005447 76.6853103,12.9752381 C76.6853103,12.9963684 76.6800384,13.0122158 76.6694943,13.022781 C76.6589501,13.0333461 76.6536782,13.0491935 76.6536782,13.0703238 C76.6115017,13.1125843 76.542966,13.2446465 76.448069,13.4665143 C76.3531719,13.6883821 76.2635483,13.8838341 76.1791954,14.0528762 C76.0948425,14.2219183 76.0104908,14.4015229 75.9261379,14.5916952 C75.841785,14.7818676 75.7785213,14.9403422 75.7363448,15.0671238 L75.420023,15.9545905 C75.3145818,16.2504142 75.2091423,16.5673634 75.1037011,16.9054476 Z" id="路径"></path>
                    </g>
                    <path d="M84.2844483,20.8564571 C84.5646897,20.8564571 84.7826552,21.0852571 84.7826552,21.3972571 C84.7826552,21.7092571 84.5646897,21.9380571 84.2844483,21.9380571 C83.9938276,21.9380571 83.7758621,21.7092571 83.7758621,21.3972571 C83.7758621,21.0852571 83.9938276,20.8564571 84.2844483,20.8564571 Z M88.456931,16.3532571 C89.3391724,16.3428571 90.0657241,16.6444571 90.563931,17.1644571 L90.1176207,17.7364571 C89.7024483,17.3412571 89.1523448,17.1020571 88.488069,17.1020571 C87.3567241,17.1020571 86.5471379,17.9236571 86.5471379,19.1196571 C86.5471379,20.3156571 87.3567241,21.1476571 88.488069,21.1476571 C89.2042414,21.1476571 89.7958621,20.8980571 90.1798966,20.4404571 L90.6469655,20.9396571 C90.1591379,21.5324571 89.4014483,21.8860571 88.456931,21.8860571 C86.8688966,21.8860571 85.747931,20.7524571 85.747931,19.1196571 C85.747931,17.4868571 86.8792759,16.3532571 88.456931,16.3532571 Z M94.342,16.3532571 C95.9611724,16.3532571 97.1132759,17.4764571 97.1132759,19.1092571 C97.1132759,20.7524571 95.9611724,21.8860571 94.342,21.8860571 C92.7228276,21.8860571 91.5707241,20.7524571 91.5707241,19.1092571 C91.5707241,17.4764571 92.7228276,16.3532571 94.342,16.3532571 Z M94.342,17.0916571 C93.2002759,17.0916571 92.3803103,17.9236571 92.3803103,19.1196571 C92.3803103,20.3260571 93.2002759,21.1580571 94.342,21.1580571 C95.4837241,21.1580571 96.3036897,20.3260571 96.3036897,19.1196571 C96.3036897,17.9236571 95.4837241,17.0916571 94.342,17.0916571 Z M103.278586,16.3740571 L103.278586,21.8548571 L102.469,21.8548571 L102.469,20.6172571 C102.105724,21.4700571 101.379172,21.8756571 100.393138,21.8860571 C99.1164828,21.8860571 98.3484138,21.0748571 98.3484138,19.7540571 L98.3484138,16.3740571 L99.158,16.3740571 L99.158,19.5356571 C99.158,20.5028571 99.7288621,21.0748571 100.673379,21.0748571 C101.804724,21.0540571 102.469,20.2324571 102.469,19.0676571 L102.469,16.3740571 L103.278586,16.3740571 Z M108.219138,16.3428571 C109.765655,16.3428571 110.845103,17.4868571 110.845103,19.1300571 C110.845103,20.7524571 109.786414,21.8860571 108.239897,21.8860571 C107.264241,21.8860571 106.516931,21.4388571 106.112138,20.6796571 L106.112138,23.8724571 L105.302552,23.8724571 L105.302552,16.3740571 L106.112138,16.3740571 L106.112138,17.5596571 C106.516931,16.7900571 107.264241,16.3428571 108.219138,16.3428571 Z M108.073828,21.1476571 C109.215552,21.1476571 110.025138,20.2948571 110.025138,19.1092571 C110.025138,17.9340571 109.215552,17.0708571 108.073828,17.0708571 C106.921724,17.0708571 106.112138,17.9236571 106.112138,19.1092571 C106.112138,20.3052571 106.921724,21.1476571 108.073828,21.1476571 Z M114.488241,16.3532571 C116.107414,16.3532571 117.259517,17.4764571 117.259517,19.1092571 C117.259517,20.7524571 116.107414,21.8860571 114.488241,21.8860571 C112.869069,21.8860571 111.716966,20.7524571 111.716966,19.1092571 C111.716966,17.4764571 112.869069,16.3532571 114.488241,16.3532571 Z M114.488241,17.0916571 C113.346517,17.0916571 112.526552,17.9236571 112.526552,19.1196571 C112.526552,20.3260571 113.346517,21.1580571 114.488241,21.1580571 C115.629966,21.1580571 116.449931,20.3260571 116.449931,19.1196571 C116.449931,17.9236571 115.629966,17.0916571 114.488241,17.0916571 Z M121.608448,16.3428571 C122.916241,16.3428571 123.68431,17.1540571 123.68431,18.4748571 L123.68431,21.8548571 L122.874724,21.8548571 L122.874724,18.6932571 C122.874724,17.7260571 122.293483,17.1540571 121.328207,17.1540571 C120.248759,17.1644571 119.584483,17.8716571 119.491069,18.9116571 L119.491069,21.8548571 L118.681483,21.8548571 L118.681483,16.3740571 L119.491069,16.3740571 L119.491069,17.5804571 C119.875103,16.7484571 120.612034,16.3532571 121.608448,16.3428571 Z M126.943414,16.3428571 C127.59731,16.3428571 128.230448,16.5300571 128.687138,16.8420571 L128.375759,17.4868571 C127.950207,17.2164571 127.400103,17.0396571 126.891517,17.0396571 C126.279138,17.0396571 125.812069,17.2580571 125.812069,17.7676571 C125.812069,18.9844571 128.863586,18.3604571 128.863586,20.3260571 C128.863586,21.4076571 127.90869,21.8860571 126.860379,21.8860571 C126.081931,21.8860571 125.282724,21.6156571 124.763759,21.1164571 L125.075138,20.5028571 C125.542207,20.9396571 126.248,21.1996571 126.891517,21.1996571 C127.535034,21.1996571 128.054,20.9604571 128.064379,20.4196571 C128.095517,19.0988571 125.033621,19.7748571 125.044,17.8300571 C125.044,16.7796571 125.947,16.3428571 126.943414,16.3428571 Z" id=".coupons" opacity="0.581705729"></path>
                </g>
            </g>
        </g>
    </g>
</svg>